<mxfile host="app.diagrams.net" modified="2023-05-04T09:19:07.312Z" agent="Mozilla/5.0 (Windows NT 10.0; Win64; x64) AppleWebKit/537.36 (KHTML, like Gecko) Chrome/112.0.0.0 Safari/537.36" etag="vIPyuPl5dCMYPN6nt8s_" version="21.2.7" type="device">
  <diagram name="第 1 页" id="0e8sX5fsn9TF-UzoR30T">
    <mxGraphModel dx="1050" dy="541" grid="1" gridSize="10" guides="1" tooltips="1" connect="1" arrows="1" fold="1" page="1" pageScale="1" pageWidth="827" pageHeight="1169" math="0" shadow="0">
      <root>
        <mxCell id="0" />
        <mxCell id="1" parent="0" />
        <mxCell id="EQDY3p57vCCUQ4RSXd2B-5" style="rounded=0;orthogonalLoop=1;jettySize=auto;html=1;exitX=0.5;exitY=1;exitDx=0;exitDy=0;" edge="1" parent="1" source="EQDY3p57vCCUQ4RSXd2B-1" target="EQDY3p57vCCUQ4RSXd2B-2">
          <mxGeometry relative="1" as="geometry" />
        </mxCell>
        <mxCell id="EQDY3p57vCCUQ4RSXd2B-6" style="rounded=0;orthogonalLoop=1;jettySize=auto;html=1;exitX=0.5;exitY=1;exitDx=0;exitDy=0;entryX=0;entryY=0;entryDx=0;entryDy=0;" edge="1" parent="1" source="EQDY3p57vCCUQ4RSXd2B-1" target="EQDY3p57vCCUQ4RSXd2B-4">
          <mxGeometry relative="1" as="geometry" />
        </mxCell>
        <mxCell id="EQDY3p57vCCUQ4RSXd2B-7" value="" style="edgeStyle=orthogonalEdgeStyle;rounded=0;orthogonalLoop=1;jettySize=auto;html=1;" edge="1" parent="1" source="EQDY3p57vCCUQ4RSXd2B-1" target="EQDY3p57vCCUQ4RSXd2B-3">
          <mxGeometry relative="1" as="geometry" />
        </mxCell>
        <mxCell id="EQDY3p57vCCUQ4RSXd2B-1" value="商品" style="rounded=1;whiteSpace=wrap;html=1;" vertex="1" parent="1">
          <mxGeometry x="379" y="70" width="70" height="40" as="geometry" />
        </mxCell>
        <mxCell id="EQDY3p57vCCUQ4RSXd2B-14" style="edgeStyle=orthogonalEdgeStyle;rounded=0;orthogonalLoop=1;jettySize=auto;html=1;exitX=0.5;exitY=1;exitDx=0;exitDy=0;" edge="1" parent="1" source="EQDY3p57vCCUQ4RSXd2B-2" target="EQDY3p57vCCUQ4RSXd2B-8">
          <mxGeometry relative="1" as="geometry" />
        </mxCell>
        <mxCell id="EQDY3p57vCCUQ4RSXd2B-2" value="评论1" style="rounded=1;whiteSpace=wrap;html=1;" vertex="1" parent="1">
          <mxGeometry x="270" y="140" width="70" height="40" as="geometry" />
        </mxCell>
        <mxCell id="EQDY3p57vCCUQ4RSXd2B-3" value="评论2" style="rounded=1;whiteSpace=wrap;html=1;" vertex="1" parent="1">
          <mxGeometry x="379" y="140" width="70" height="40" as="geometry" />
        </mxCell>
        <mxCell id="EQDY3p57vCCUQ4RSXd2B-4" value="评论3" style="rounded=1;whiteSpace=wrap;html=1;" vertex="1" parent="1">
          <mxGeometry x="490" y="140" width="70" height="40" as="geometry" />
        </mxCell>
        <mxCell id="EQDY3p57vCCUQ4RSXd2B-15" style="rounded=0;orthogonalLoop=1;jettySize=auto;html=1;exitX=0.5;exitY=1;exitDx=0;exitDy=0;entryX=0.5;entryY=0;entryDx=0;entryDy=0;" edge="1" parent="1" source="EQDY3p57vCCUQ4RSXd2B-8" target="EQDY3p57vCCUQ4RSXd2B-9">
          <mxGeometry relative="1" as="geometry" />
        </mxCell>
        <mxCell id="EQDY3p57vCCUQ4RSXd2B-16" style="rounded=0;orthogonalLoop=1;jettySize=auto;html=1;exitX=0.5;exitY=1;exitDx=0;exitDy=0;entryX=0.5;entryY=0;entryDx=0;entryDy=0;" edge="1" parent="1" source="EQDY3p57vCCUQ4RSXd2B-8" target="EQDY3p57vCCUQ4RSXd2B-10">
          <mxGeometry relative="1" as="geometry" />
        </mxCell>
        <mxCell id="EQDY3p57vCCUQ4RSXd2B-8" value="评论1-1" style="rounded=1;whiteSpace=wrap;html=1;" vertex="1" parent="1">
          <mxGeometry x="270" y="210" width="70" height="40" as="geometry" />
        </mxCell>
        <mxCell id="EQDY3p57vCCUQ4RSXd2B-9" value="评论1-1-1" style="rounded=1;whiteSpace=wrap;html=1;" vertex="1" parent="1">
          <mxGeometry x="200" y="280" width="70" height="40" as="geometry" />
        </mxCell>
        <mxCell id="EQDY3p57vCCUQ4RSXd2B-10" value="评论1-1-2" style="rounded=1;whiteSpace=wrap;html=1;" vertex="1" parent="1">
          <mxGeometry x="340" y="280" width="70" height="40" as="geometry" />
        </mxCell>
      </root>
    </mxGraphModel>
  </diagram>
</mxfile>
